<svg width="32" height="32" viewBox="0 0 32 32" fill="none" xmlns="http://www.w3.org/2000/svg">
<path d="M11.2859 7.51469L10.3431 8.4575L11.2859 7.51469ZM7.51469 7.51469L6.57188 6.57188H6.57188L7.51469 7.51469ZM7.51469 11.2859L8.4575 10.3431L7.51469 11.2859ZM7.51475 20.714L8.45756 21.6568L8.45756 21.6568L7.51475 20.714ZM7.51475 24.4853L6.57194 25.4281L6.57194 25.4281L7.51475 24.4853ZM11.286 24.4853L12.2288 25.4281L12.2288 25.4281L11.286 24.4853ZM20.714 24.4853L19.7712 25.4281H19.7712L20.714 24.4853ZM24.4853 24.4853L25.4281 25.4281L25.4281 25.4281L24.4853 24.4853ZM24.4853 20.714L25.4281 19.7712L25.4281 19.7712L24.4853 20.714ZM24.4853 11.2859L23.5425 10.3431L23.5425 10.3431L24.4853 11.2859ZM24.4853 7.51469L23.5425 8.4575L23.5425 8.4575L24.4853 7.51469ZM20.7141 7.51469L21.6569 8.4575L21.6569 8.4575L20.7141 7.51469ZM14.6672 6.66667C14.6672 5.93029 15.2642 5.33333 16.0006 5.33333V2.66667C13.7914 2.66667 12.0006 4.45753 12.0006 6.66667H14.6672ZM10.3431 8.4575C11.9383 10.0527 14.6672 8.9239 14.6672 6.66667H12.0006C12.0006 6.65559 12.0067 6.62167 12.0304 6.58813C12.0497 6.56065 12.07 6.54837 12.0832 6.54291C12.0964 6.53745 12.1194 6.5318 12.1524 6.53753C12.1927 6.54451 12.2209 6.56409 12.2287 6.57188L10.3431 8.4575ZM8.4575 8.4575C8.9782 7.9368 9.82242 7.9368 10.3431 8.4575L12.2287 6.57188C10.6666 5.00978 8.13398 5.00978 6.57188 6.57188L8.4575 8.4575ZM8.4575 10.3431C7.9368 9.82242 7.9368 8.9782 8.4575 8.4575L6.57188 6.57188C5.00978 8.13398 5.00978 10.6666 6.57188 12.2287L8.4575 10.3431ZM6.66667 14.6667C8.92312 14.6667 10.0529 11.9385 8.4575 10.3431L6.57188 12.2287C6.56404 12.2209 6.54442 12.1926 6.53742 12.1522C6.53168 12.1191 6.53734 12.096 6.54283 12.0827C6.54832 12.0695 6.56063 12.0492 6.58812 12.0298C6.62166 12.0061 6.65558 12 6.66667 12V14.6667ZM5.33333 16C5.33333 15.2636 5.93029 14.6667 6.66667 14.6667V12C4.45753 12 2.66667 13.7909 2.66667 16H5.33333ZM6.66667 17.3333C5.93029 17.3333 5.33333 16.7364 5.33333 16H2.66667C2.66667 18.2091 4.45753 20 6.66667 20V17.3333ZM8.45756 21.6568C10.0531 20.0613 8.92291 17.3333 6.66667 17.3333V20C6.65558 20 6.62168 19.9939 6.58815 19.9702C6.56067 19.9509 6.54837 19.9306 6.54288 19.9173C6.53738 19.904 6.53171 19.881 6.53745 19.8478C6.54446 19.8074 6.56409 19.779 6.57194 19.7712L8.45756 21.6568ZM8.45756 23.5424C7.93686 23.0217 7.93686 22.1775 8.45756 21.6568L6.57194 19.7712C5.00984 21.3333 5.00984 23.866 6.57194 25.4281L8.45756 23.5424ZM10.3432 23.5424C9.82248 24.0631 8.97826 24.0631 8.45756 23.5424L6.57194 25.4281C8.13404 26.9902 10.6667 26.9902 12.2288 25.4281L10.3432 23.5424ZM14.6672 25.3333C14.6672 23.0763 11.9385 21.9471 10.3432 23.5424L12.2288 25.4281C12.221 25.4359 12.1927 25.4554 12.1524 25.4624C12.1194 25.4682 12.0964 25.4625 12.0832 25.457C12.07 25.4516 12.0497 25.4393 12.0303 25.4118C12.0067 25.3783 12.0006 25.3444 12.0006 25.3333H14.6672ZM16.0006 26.6667C15.2642 26.6667 14.6672 26.0697 14.6672 25.3333H12.0006C12.0006 27.5425 13.7914 29.3333 16.0006 29.3333V26.6667ZM17.3339 25.3333C17.3339 26.0697 16.737 26.6667 16.0006 26.6667V29.3333C18.2097 29.3333 20.0006 27.5425 20.0006 25.3333H17.3339ZM21.6568 23.5424C20.0611 21.9467 17.3339 23.0779 17.3339 25.3333H20.0006C20.0006 25.3445 19.9944 25.3784 19.9708 25.4119C19.9514 25.4394 19.9311 25.4517 19.9178 25.4573C19.9045 25.4628 19.8814 25.4685 19.8481 25.4627C19.8076 25.4557 19.7791 25.436 19.7712 25.4281L21.6568 23.5424ZM23.5424 23.5424C23.0217 24.0631 22.1775 24.0631 21.6568 23.5424L19.7712 25.4281C21.3333 26.9902 23.866 26.9902 25.4281 25.4281L23.5424 23.5424ZM23.5424 21.6568C24.0631 22.1775 24.0631 23.0217 23.5424 23.5424L25.4281 25.4281C26.9902 23.866 26.9902 21.3333 25.4281 19.7712L23.5424 21.6568ZM25.3333 17.3333C23.0771 17.3333 21.9469 20.0613 23.5424 21.6568L25.4281 19.7712C25.4359 19.7791 25.4555 19.8074 25.4625 19.8478C25.4683 19.881 25.4626 19.904 25.4571 19.9173C25.4516 19.9306 25.4393 19.9509 25.4118 19.9702C25.3783 19.9939 25.3444 20 25.3333 20V17.3333ZM26.6667 16C26.6667 16.7364 26.0697 17.3333 25.3333 17.3333V20C27.5425 20 29.3333 18.2091 29.3333 16H26.6667ZM25.3333 14.6667C26.0697 14.6667 26.6667 15.2636 26.6667 16H29.3333C29.3333 13.7909 27.5425 12 25.3333 12V14.6667ZM23.5425 10.3431C21.9471 11.9385 23.0769 14.6667 25.3333 14.6667V12C25.3444 12 25.3783 12.0061 25.4119 12.0298C25.4394 12.0492 25.4517 12.0695 25.4572 12.0827C25.4627 12.096 25.4683 12.1191 25.4626 12.1522C25.4556 12.1926 25.436 12.2209 25.4281 12.2287L23.5425 10.3431ZM23.5425 8.4575C24.0632 8.9782 24.0632 9.82242 23.5425 10.3431L25.4281 12.2287C26.9902 10.6666 26.9902 8.13398 25.4281 6.57188L23.5425 8.4575ZM21.6569 8.4575C22.1776 7.9368 23.0218 7.9368 23.5425 8.4575L25.4281 6.57188C23.866 5.00978 21.3334 5.00978 19.7713 6.57188L21.6569 8.4575ZM17.3339 6.66667C17.3339 8.92228 20.0613 10.0531 21.6569 8.4575L19.7713 6.57188C19.7792 6.56397 19.8076 6.54429 19.8481 6.53727C19.8813 6.53152 19.9045 6.5372 19.9178 6.54271C19.9311 6.54822 19.9514 6.56055 19.9708 6.58804C19.9944 6.62158 20.0006 6.65552 20.0006 6.66667H17.3339ZM16.0006 5.33333C16.737 5.33333 17.3339 5.93029 17.3339 6.66667H20.0006C20.0006 4.45753 18.2097 2.66667 16.0006 2.66667V5.33333ZM18.6667 16C18.6667 17.4728 17.4728 18.6667 16 18.6667V21.3333C18.9455 21.3333 21.3333 18.9455 21.3333 16H18.6667ZM16 13.3333C17.4728 13.3333 18.6667 14.5272 18.6667 16H21.3333C21.3333 13.0545 18.9455 10.6667 16 10.6667V13.3333ZM13.3333 16C13.3333 14.5272 14.5272 13.3333 16 13.3333V10.6667C13.0545 10.6667 10.6667 13.0545 10.6667 16H13.3333ZM16 18.6667C14.5272 18.6667 13.3333 17.4728 13.3333 16H10.6667C10.6667 18.9455 13.0545 21.3333 16 21.3333V18.6667Z" fill="white"/>
</svg>
