<svg width="32" height="32" viewBox="0 0 32 32" fill="none" xmlns="http://www.w3.org/2000/svg">
<g id="Monotone/17-document">
<path id="Vector" d="M12 28H20C22.9455 28 25.3334 25.6122 25.3334 22.6667V18.6667V11.5425C25.3334 10.128 24.7715 8.77143 23.7713 7.77123L21.5621 5.5621C20.5619 4.5619 19.2054 4 17.7909 4H12C9.0545 4 6.66669 6.38782 6.66669 9.33333V22.6667C6.66669 25.6122 9.0545 28 12 28Z" stroke="white" stroke-width="2.66667" stroke-linejoin="round"/>
<path id="Vector_2" d="M12 14.6667L20 14.6667" stroke="white" stroke-width="2.66667" stroke-linejoin="round"/>
<path id="Vector_3" d="M12 20L17.3333 20" stroke="white" stroke-width="2.66667" stroke-linejoin="round"/>
<path id="Vector_4" d="M24.6667 10.1308C23.9041 10.571 23.0176 10.7474 22.1446 10.6325C21.2716 10.5175 20.4609 10.1177 19.8383 9.4951C19.2156 8.87247 18.8158 8.06178 18.7009 7.18878C18.586 6.31577 18.7623 5.42924 19.2026 4.66667" stroke="white" stroke-width="2.66667" stroke-linejoin="round"/>
</g>
</svg>
