<svg width="20" height="20" viewBox="0 0 20 20" fill="none" xmlns="http://www.w3.org/2000/svg">
<g id="Logomark">
<path id="Vector" d="M9.99978 12.2222C12.1476 12.2222 13.8887 13.9633 13.8887 16.1111C13.8887 18.2589 12.1476 20 9.99978 20C7.852 20 6.11089 18.2589 6.11089 16.1111C6.11089 13.9633 7.852 12.2222 9.99978 12.2222Z" fill="#F7F8F2"/>
<path id="Vector_2" d="M3.88894 6.11111C6.03672 6.11111 7.77783 7.85222 7.77783 10C7.77783 12.1478 6.03672 13.8889 3.88894 13.8889C1.74116 13.8889 4.73388e-05 12.1478 4.72919e-05 10C4.72449e-05 7.85222 1.74116 6.11111 3.88894 6.11111Z" fill="#F7F8F2"/>
<path id="Vector_3" d="M9.99978 -9.45175e-06C12.1476 -9.49869e-06 13.8887 1.74111 13.8887 3.88888C13.8887 6.03666 12.1476 7.77778 9.99978 7.77778C7.852 7.77778 6.11089 6.03666 6.11089 3.88888C6.11089 1.74111 7.852 -9.40481e-06 9.99978 -9.45175e-06Z" fill="#F7F8F2"/>
<path id="Vector_4" d="M16.1111 6.11111C18.2589 6.11111 20 7.85222 20 10C20 12.1478 18.2589 13.8889 16.1111 13.8889C13.9633 13.8889 12.2222 12.1478 12.2222 10C12.2222 7.85222 13.9633 6.11111 16.1111 6.11111Z" fill="#F7F8F2"/>
</g>
</svg>
