<svg width="36" height="36" viewBox="0 0 36 36" fill="none" xmlns="http://www.w3.org/2000/svg">
<path d="M18 22C21.866 22 25 25.134 25 29C25 32.866 21.866 36 18 36C14.134 36 11 32.866 11 29C11 25.134 14.134 22 18 22Z" fill="#0B63E5"/>
<path d="M7 11C10.866 11 14 14.134 14 18C14 21.866 10.866 25 7 25C3.13401 25 2.37484e-07 21.866 1.5299e-07 18C6.84959e-08 14.134 3.13401 11 7 11Z" fill="#0B63E5"/>
<path d="M18 1.5299e-07C21.866 6.84959e-08 25 3.13401 25 7C25 10.866 21.866 14 18 14C14.134 14 11 10.866 11 7C11 3.13401 14.134 2.37484e-07 18 1.5299e-07Z" fill="#0B63E5"/>
<path d="M29 11C32.866 11 36 14.134 36 18C36 21.866 32.866 25 29 25C25.134 25 22 21.866 22 18C22 14.134 25.134 11 29 11Z" fill="#0B63E5"/>
</svg>
