<svg width="1920" height="1080" viewBox="0 0 1920 1080" fill="none" xmlns="http://www.w3.org/2000/svg">
<path d="M-379.385 1285.36C-446.824 1283.36 -490.793 1266.81 -510.887 1235.73C-536.672 1195.87 -522.923 1132.59 -470.022 1047.65C-412.683 955.589 -307.608 834.87 -157.689 688.904C40.7804 495.603 234.809 331.769 418.936 201.914C578.892 89.1216 736.464 -1.54281 887.313 -67.5208C1151.41 -183.108 1359.25 -209.547 1544.56 -220.936C1743.16 -233.146 1914.23 -204.61 2052.97 -136.135C2173.59 -76.5927 2267.75 11.5779 2332.85 125.979C2468.44 364.367 2443.68 663.113 2341.41 814.25C2293.45 885.127 2231 919.164 2165.65 910.006C1888.94 871.262 1642.89 855.665 1413.41 862.318C1097.21 871.473 816.388 924.164 578.705 1018.85C408.808 1086.55 160.089 1179.18 -59.9701 1235.99C-196.198 1271.19 -302.914 1287.64 -379.422 1285.36L-379.385 1285.36ZM1544.87 -215.442L1545.22 -209.946C1360.95 -198.636 1154.21 -172.312 891.717 -57.4501C741.574 8.25435 584.639 98.5327 425.283 210.901C241.608 340.401 48.0669 503.882 -150.022 696.753C-299.298 842.111 -403.839 962.147 -460.714 1053.45C-511.145 1134.41 -524.923 1193.72 -501.668 1229.67C-462.182 1290.74 -310.384 1289.22 -62.7012 1225.27C156.766 1168.59 405.039 1076.13 574.638 1008.57C813.511 913.402 1095.63 860.456 1413.08 851.264C1643.15 844.592 1889.82 860.244 2167.15 899.08C2228.15 907.63 2286.76 875.283 2332.26 808.088C2432.65 659.766 2456.7 366.117 2323.24 131.474C2259.27 19.0197 2166.68 -67.6684 2048.08 -126.23C1911.09 -193.843 1741.91 -222.028 1545.22 -209.909L1544.87 -215.405L1544.87 -215.442Z" fill="#0B63E5" fill-opacity="0.02"/>
<path d="M-280.455 1202.34C-342.534 1200.5 -382.941 1185.27 -401.234 1156.64C-450.532 1079.59 -343.455 915.015 -73.8786 653.477C279.616 319.185 616.447 85.6359 927.274 -40.7107C1179.56 -143.249 1372.34 -161.447 1543.11 -165.795C1719.58 -175.055 1871.4 -149.006 1994.31 -88.3277C2101.71 -35.3257 2185.3 42.7379 2242.78 143.77C2282.38 213.385 2328.74 328.812 2324.62 483.198C2321.69 592.89 2292.16 697.779 2243.54 770.955C2194.49 844.782 2130.37 880.942 2062.93 872.715C1558.81 817.825 1029.6 791.455 575.208 968.681C420.82 1028.88 196.152 1110.93 2.37822 1159.87C-117.722 1190.21 -212.208 1204.37 -280.455 1202.34ZM1646.39 -156.725C1613.13 -157.714 1578.83 -157.297 1543.5 -155.439C1373.58 -151.103 1181.86 -133.019 931.14 -31.0978C621.504 94.7688 285.759 327.614 -66.7538 661.015C-204.663 794.784 -301.349 905.223 -354.075 989.211C-400.746 1063.59 -413.719 1118.05 -392.58 1151.04C-356.799 1206.96 -224.765 1206.54 -0.225697 1149.82C193.03 1101.01 417.289 1019.1 571.379 959.032C1027.85 780.984 1558.54 807.361 2064.04 862.404C2127.49 870.143 2188.08 835.609 2234.85 765.212C2282.4 693.623 2311.32 590.704 2314.2 482.925C2316.43 399.019 2304.31 272.976 2233.73 148.913C2177.31 49.7157 2095.22 -26.9779 1989.7 -79.0404C1892.9 -126.794 1777.74 -152.821 1646.35 -156.726L1646.39 -156.725Z" fill="#0B63E5" fill-opacity="0.02"/>
<path d="M-181.61 1119.47C-238.403 1117.78 -275.211 1103.87 -291.739 1077.69C-336.203 1007.34 -237.523 857.016 9.92185 618.123C346.919 309.773 668.982 97.1372 967.228 -13.9007C1209.89 -104.245 1393.81 -113.503 1541.7 -110.654C1696.17 -117.032 1829.07 -93.3865 1936.41 -40.35C2030.7 6.26154 2103.78 74.478 2153.67 162.437C2203.74 250.659 2227.98 354.827 2223.79 463.708C2219.99 563.067 2192.75 656.427 2147.08 726.562C2096.68 803.956 2030.32 842.589 1960.16 835.387L1921.27 832.317C1712.32 815.835 1475.47 797.161 1243.81 802.976C978.684 809.673 758.822 847.462 571.63 918.508C369.647 995.151 199.044 1050.79 64.608 1083.79C-39.3659 1109.34 -121.622 1121.21 -181.572 1119.43L-181.61 1119.47ZM1622.33 -101.483C1596.2 -102.26 1569.37 -102.063 1541.81 -100.931C1394.51 -103.763 1211.73 -94.5446 970.595 -4.78117C673.537 105.85 352.522 317.818 16.5446 625.241C-223.598 857.062 -324.599 1007.57 -283.539 1072.52C-252.026 1122.42 -135.675 1123.04 62.278 1074.41C196.381 1041.47 366.576 985.967 568.188 909.46C756.384 838.002 977.317 800.024 1243.54 793.286C1475.72 787.45 1712.83 806.131 1922.03 822.657L1961.04 825.731C2027.56 832.531 2090.65 795.457 2138.97 721.278C2183.06 653.599 2210.43 559.58 2214.14 463.384C2218.24 356.304 2194.42 253.879 2145.26 167.267C2096.35 81.0308 2024.63 14.1432 1932.11 -31.6057C1845.31 -74.5339 1741.39 -97.944 1622.33 -101.483Z" fill="#0B63E5" fill-opacity="0.02"/>
<path d="M-83.0818 1037.17C-134.478 1035.65 -167.425 1022.85 -182.329 998.881C-221.92 935.195 -131.635 799.09 93.7519 582.807C414.479 300.148 721.773 108.462 1007.21 12.9841C1242.77 -65.8274 1415.7 -65.0311 1540.09 -55.4803C1858.81 -64.1558 2001.9 68.9465 2065.78 182.171C2108.92 258.627 2129.12 349.385 2124.19 444.587C2119.69 531.665 2094.23 615.617 2052.53 680.937C2001.2 761.359 1929.97 804.118 1857.43 798.133C1804.15 795.556 1749.31 792.49 1696.3 789.515C1306.8 767.777 904.054 745.313 568.117 868.447C250.57 984.765 35.0922 1040.72 -83.0095 1037.21L-83.0818 1037.17ZM1469.13 -50.3371C1353.05 -53.7876 1202.62 -42.9075 1010.01 21.5344C725.719 116.642 419.471 307.733 99.8005 589.466C-118.78 799.251 -211.198 935.44 -174.727 994.101C-147.444 1037.95 -46.742 1039.65 124.626 999.097C239.266 971.949 383.296 926.457 564.916 859.921C902.599 736.177 1306.34 758.707 1696.72 780.471C1749.73 783.446 1804.53 786.474 1857.92 789.092C1928.33 794.829 1994.64 754.722 2044.85 676.034C2085.7 612.014 2110.68 529.63 2115.09 444.095C2119.93 350.584 2100.13 261.532 2057.82 186.573C1995.13 75.4822 1854.42 -55.0826 1540 -46.4634L1539.53 -46.4775C1517.6 -48.16 1494.13 -49.5572 1469.06 -50.3026L1469.13 -50.3371Z" fill="#0B63E5" fill-opacity="0.02"/>
<path d="M16.0104 954.82C-27.75 953.519 -59.2602 943.085 -73.2046 920.214C-107.922 863.151 -25.9225 741.231 177.521 547.452C482.207 290.233 774.731 119.497 1047.1 39.8288C1221.31 -11.134 1382.09 -24.2833 1538.57 -0.341533C1807.53 -2.80177 1926.72 108.864 1979.26 203.012C2015.37 267.663 2031.52 344.753 2026.06 425.913C2021.05 500.349 1997.73 574.167 1960.39 633.801C1908.2 717.179 1835.36 763.314 1759.84 761.069C1758.08 761.017 1756.32 760.964 1754.56 760.838C1663.16 759.042 1572.28 755.457 1484.42 752.036C1146.77 738.796 827.868 726.298 564.396 818.306C365.42 887.75 140.829 958.567 15.9359 954.855L16.0104 954.82ZM1416.07 -3.09917C1298.78 -6.58568 1177.83 10.2877 1049.47 47.8511C778.213 127.221 486.734 297.399 183.104 553.692C-14.0625 741.51 -97.9719 863.41 -66.0571 915.861C-9.05817 1009.52 405.638 864.832 561.729 810.385C826.65 717.832 1146.35 730.39 1484.82 743.654C1572.64 747.111 1663.44 750.657 1754.95 752.457C1829.38 756.914 1901.63 712.014 1953.36 629.321C1989.97 570.844 2012.84 498.412 2017.77 425.335C2023.15 345.793 2007.31 270.332 1972.01 207.104C1920.55 114.902 1803.54 5.50987 1538.32 8.04463L1537.66 8.02499C1497.46 1.82344 1456.97 -1.88353 1416.07 -3.09917Z" fill="#0B63E5" fill-opacity="0.02"/>
<path d="M113.944 872.581C75.1025 871.427 47.6755 862.07 35.6759 841.761C5.83353 791.285 79.6614 683.443 261.348 512.063C550.292 280.072 828.049 130.249 1087.08 66.6401C1297.54 14.9509 1447.95 31.6073 1537.18 54.7648C1757.28 58.215 1853.16 149.271 1894.7 225.128C1951.44 328.716 1942.43 469.96 1871.7 584.963C1816.83 674.226 1735.08 725.912 1652.89 723.469C1652.52 723.458 1652.19 723.448 1651.82 723.437C1521.42 724.568 1400.16 721.111 1282.89 717.809C1002.51 709.88 760.389 703.051 560.883 768.062C383.308 825.845 212.185 875.464 113.908 872.543L113.944 872.581ZM1377.09 40.9868C1155.79 34.4088 776.788 108.073 266.356 517.881C90.4146 683.873 14.9369 791.593 42.2585 837.87C87.3184 914.126 405.588 810.567 558.528 760.776C759.332 695.326 1002.04 702.209 1283.12 710.159C1400.31 713.458 1521.5 716.913 1651.94 715.784C1652.27 715.794 1652.6 715.803 1652.93 715.813C1732.52 718.179 1811.73 667.853 1865.17 580.94C1934.44 468.25 1943.39 330.059 1887.94 228.829C1847.34 154.731 1753.42 65.6471 1536.58 62.478L1536.1 62.4638L1535.67 62.3404C1498.22 52.576 1445.08 43.0078 1377.09 40.9868Z" fill="#0B63E5" fill-opacity="0.02"/>
<path d="M212.867 790.702C179.092 789.698 154.192 781.853 143.963 763.804C119.072 719.808 184.88 625.901 345.146 476.709C618.689 269.625 881.639 140.788 1127.02 93.5237C1217.79 76.0475 1303.75 70.3933 1382.49 76.7465C1461.71 83.1138 1512.35 100.191 1535.79 109.981C1640.28 115.259 1719.94 143.986 1772.53 195.432C1817.95 239.854 1840.9 299.77 1838.85 368.662C1836.59 444.505 1804.48 523.511 1750.65 585.488C1693.66 651.053 1622.08 686.807 1549.05 686.146C1375.95 692.413 1224.19 688.785 1090.32 685.579C872.251 680.349 700.007 676.223 557.301 717.962L548.516 720.535C443.176 751.273 299.103 793.265 212.904 790.703L212.867 790.702ZM1342.63 81.599C1283.92 79.8541 1212.47 84.2463 1128.33 100.447C884.01 147.522 622.029 275.946 349.652 482.107C194.599 626.484 127.366 720.165 150.092 760.342C183.641 819.616 410.815 753.366 546.549 713.777L555.334 711.203C699.076 669.2 871.799 673.304 1090.49 678.553C1224.29 681.757 1375.94 685.381 1548.97 679.112C1620.05 679.752 1689.72 644.862 1745.35 580.839C1798.15 520.083 1829.67 442.679 1831.84 368.453C1833.83 301.548 1811.59 243.457 1767.6 200.44C1716.19 150.133 1637.84 122.034 1534.81 116.947L1534.19 116.928L1533.61 116.69C1510.53 106.985 1446.63 84.6905 1342.59 81.5979L1342.63 81.599Z" fill="#0B63E5" fill-opacity="0.02"/>
<path d="M311.367 710.651C281.814 709.773 259.934 702.938 251.341 686.668C231.406 649.004 289.496 568.746 428.978 441.392L429.279 441.144C606.764 315.951 878.826 158.669 1166.97 120.444C1251.71 109.194 1333.39 109.266 1403.12 120.653C1457.97 129.609 1505.81 145.83 1534.48 165.237C1735.8 186.204 1752.68 306.977 1750.57 357.975C1747.9 423.277 1712.7 495.97 1656.42 552.463C1595.97 613.176 1521.36 647.404 1446.28 648.891C1222.79 663.01 1047.9 657.775 907.4 653.562C755.635 649.014 646.125 645.722 553.68 667.86C546.316 669.629 538.655 671.463 530.809 673.365C455.975 691.425 369.041 712.365 311.367 710.651ZM433.097 446.227C298.07 569.553 238.816 649.445 256.941 683.705C280.007 727.279 430.044 691.096 529.303 667.173C537.149 665.271 544.809 663.437 552.174 661.668C645.433 639.333 755.348 642.6 907.554 647.161C1047.97 651.408 1222.65 656.601 1446 642.476C1518.5 641.061 1593.49 606.586 1651.89 547.91C1707.04 492.525 1741.56 421.396 1744.19 357.638C1748.5 253.509 1671.52 185.619 1533.01 171.415L1532.2 171.317L1531.55 170.856C1475.31 132.296 1340.98 103.675 1167.78 126.653C1009.49 147.644 753.502 220.142 433.099 446.154L433.097 446.227Z" fill="#0B63E5" fill-opacity="0.02"/>
<path d="M410.732 632.872C383.969 632.076 363.637 626.318 356.625 611.273C349.405 595.818 357.176 572.967 380.381 541.407C405.616 507.074 450.144 461.533 512.79 406.002L513.128 405.755C816.445 209.422 1057.84 156.849 1206.9 147.327C1379.33 136.291 1496.61 177.401 1533.25 220.532C1657.6 245.064 1671.5 315.24 1668.7 354.953C1661.01 464.062 1514.24 602.832 1343.49 611.561C1055.24 637.414 872.424 626.642 738.908 618.808C657.772 614.04 599.121 610.567 549.964 617.757C541.919 618.916 533.466 620.211 524.83 621.501C485.557 627.475 443.368 633.879 410.731 632.909L410.732 632.872ZM516.407 410.417C400.396 513.324 348.367 580.067 361.768 608.849C375.551 638.379 457.825 625.878 523.969 615.843C532.607 614.516 541.059 613.258 549.14 612.1C598.85 604.852 657.721 608.332 739.224 613.111C872.557 620.94 1055.15 631.705 1343.07 605.88C1418.95 602.024 1498.69 569.826 1561.97 517.554C1621.53 468.373 1659.28 407.427 1663.02 354.563C1667.65 289.024 1620.8 243.345 1531.18 225.918L1530.19 225.742L1529.56 224.95C1500.36 189.624 1390.43 141.296 1207.28 153.008C1058.92 162.513 818.635 214.862 516.407 410.417Z" fill="#0B63E5" fill-opacity="0.02"/>
<path d="M818.441 597.022C713.408 593.9 646.68 582.823 600.354 575.114C578.342 571.478 560.975 568.569 545.941 567.533C542.018 567.232 538.057 566.967 534.097 566.702C499.149 564.375 463.027 561.976 456.056 540.601C450.365 523.166 458.728 486.564 596.622 370.612L596.96 370.365C769.963 269.851 940.227 207.101 1103.03 183.814C1273.96 159.37 1383.98 186.385 1434.33 204.632C1486.13 223.438 1521.59 249.378 1531.97 275.972C1592.5 300.044 1600.8 336.073 1597.01 362.136C1590.87 404.547 1547.09 454.454 1479.87 495.602C1409.7 538.576 1322.5 567.202 1240.61 574.192C1054.41 595.716 918.884 600.007 818.441 597.022ZM546.273 562.536C561.526 563.615 579.041 566.492 601.162 570.168C691.584 585.189 859.85 613.126 1240.1 569.207C1420.68 553.775 1580.28 442.923 1592.07 361.4C1597.12 326.429 1575.36 298.356 1529.12 280.231L1528.07 279.832L1527.69 278.753C1518.39 253.185 1483.72 227.894 1432.64 209.368C1376.26 188.917 1071.18 100.736 599.663 374.605C498.023 460.084 452.588 513.881 460.806 539.049C466.733 557.227 501.131 559.501 534.429 561.706C538.426 561.972 542.387 562.237 546.31 562.537L546.273 562.536Z" fill="#0B63E5" fill-opacity="0.02"/>
<path d="M736.373 567.782C712.804 567.082 691.168 565.629 671.538 563.462C574.707 552.669 549.461 525.56 541.164 516.662C532.944 507.656 529.403 498.237 530.373 487.847C533.319 456.716 576.817 412.47 680.528 335.188L680.865 334.977C846.196 251.502 1014.98 203.985 1168.98 197.592C1343 190.322 1438.09 235.963 1470.9 255.934C1508.65 278.887 1529.82 305.838 1530.56 331.851C1544.95 348.293 1548.88 365.454 1542.34 382.894C1526.86 424.18 1456.54 457.064 1400.35 477.334C1326.73 503.898 1233.47 525.055 1137.8 536.863C970.69 560.39 836.082 570.746 736.373 567.782ZM544.302 513.7C600.28 573.714 799.758 580.085 1137.2 532.575C1312.23 510.977 1512.25 450.657 1538.27 381.411C1544.29 365.392 1540.39 349.482 1526.78 334.205L1526.24 333.6L1526.27 332.791C1525.9 308.041 1505.47 282.106 1468.62 259.695C1331.25 176.167 1026.78 165.313 682.917 338.867C581.798 414.238 537.442 458.937 534.658 488.306C533.796 497.52 536.863 505.6 544.301 513.736L544.302 513.7Z" fill="#0B63E5" fill-opacity="0.02"/>
<path d="M652.837 538.572C591.565 536.751 554.022 526.542 539.437 507.922C530.586 496.652 529.979 482.46 537.602 464.574C550.6 434 597.691 397.408 634.93 372.119C677.458 343.196 728.386 314.743 764.623 299.659C959.874 218.324 1119.32 208.044 1218.65 213.72C1334.13 220.319 1435.86 252.978 1490.83 301.034C1522.6 328.816 1535.94 359.694 1528.48 388.004C1509.68 459.159 1385.26 468.05 1241.21 478.347C1173.57 483.184 1103.64 488.174 1034.89 499.567C862.738 528.061 735.952 541.043 652.837 538.572ZM765.307 301.373L766.027 303.088C699.319 330.887 563.177 413.869 541.012 466.075C533.979 482.616 534.44 495.551 542.369 505.69C575.364 547.792 740.92 544.504 1034.33 495.943C1103.27 484.518 1173.27 479.53 1240.99 474.696C1383.64 464.505 1506.81 455.686 1524.94 387.089C1532.06 360.205 1519.09 330.663 1488.43 303.835C1434.07 256.275 1333.14 223.971 1218.47 217.396C1119.39 211.727 960.646 222.029 766.065 303.052L765.345 301.337L765.307 301.373Z" fill="#0B63E5" fill-opacity="0.02"/>
</svg>
